Coordinates
version=1
nRows=17
nColumns=36
inDegrees=yes

Units are S.I. units (second, meters, Newtons, ...)
If the header above contains a line with 'inDegrees', this indicates whether rotational values are in degrees (yes) or radians (no).

endheader
time	pelvis_tilt	pelvis_list	pelvis_rotation	pelvis_tx	pelvis_ty	pelvis_tz	hip_flexion_r	hip_adduction_r	hip_rotation_r	knee_angle_r	knee_angle_r_beta	ankle_angle_r	subtalar_angle_r	mtp_angle_r	hip_flexion_l	hip_adduction_l	hip_rotation_l	knee_angle_l	knee_angle_l_beta	ankle_angle_l	subtalar_angle_l	mtp_angle_l	lumbar_extension	lumbar_bending	lumbar_rotation	arm_flex_r	arm_add_r	arm_rot_r	elbow_flex_r	pro_sup_r	arm_flex_l	arm_add_l	arm_rot_l	elbow_flex_l	pro_sup_l
      3.91666670	    -14.00471507	      0.79014090	      1.43926301	      0.29165667	      1.19341777	      0.00366663	      6.89013636	     -3.50051694	     -0.61694704	     28.81686692	      0.50294921	     -0.71811762	    -16.81878665	     -7.49999987	      9.06729732	      0.10720280	     -4.95186464	     30.95333791	      0.54023766	     -5.53203856	    -18.06430834	     -7.49999987	      3.92494540	     -4.38868596	     -1.29700978	     36.07317076	     -5.37279838	     34.50968782	     59.22810894	     79.69451779	     36.04116937	     -4.04882411	     34.96627226	     61.55659263	     63.40279600
      3.93333330	    -12.33094914	      0.66410986	      1.56995921	      0.30501925	      1.20799329	      0.00006362	      7.63935518	     -3.95988983	     -1.43928742	     33.77254181	      0.58944205	     -5.30427410	    -20.88156533	     -7.49999987	     10.10675028	     -0.49561626	     -4.19696683	     35.93223646	      0.62713583	     -8.19118637	    -20.48754561	     -7.49999987	      2.34824594	     -4.08444815	     -0.82210821	     39.65705869	     -5.32913662	     36.97296849	     56.45329237	     79.87000347	     39.23706911	     -4.38272106	     38.72469005	     61.22118830	     64.55827623
      3.95000000	    -10.40099474	      0.56774608	      1.62728952	      0.31928101	      1.22009942	      0.00034573	      8.99574282	     -4.53468808	     -2.22382082	     39.72933596	      0.69340772	     -6.64539341	    -24.77476136	     -7.49999987	     11.73973754	     -1.13736056	     -3.75039223	     42.41547255	      0.74028965	     -9.02259355	    -23.50686764	     -7.49999987	     -0.02970140	     -3.85333558	     -0.71496878	     42.20536666	     -5.52669532	     37.65051739	     55.20936815	     79.67243889	     42.20331283	     -4.31394610	     40.24477894	     60.72977029	     65.08436906
      3.96666670	     -9.12972540	      0.34512233	      1.73896747	      0.33431086	      1.23074707	      0.00068590	     11.66247634	     -4.98944837	     -3.01937723	     45.70574379	      0.79771572	     -6.47129918	    -28.30098470	     -7.49999987	     14.08810438	     -1.98073358	     -3.41252467	     48.26729495	      0.84242322	     -7.23298846	    -24.76955206	     -7.49999987	     -1.59798084	     -3.56795063	     -0.29813282	     44.74529219	     -5.62872192	     39.25877742	     52.90039086	     80.13077240	     45.73940367	     -4.12445353	     44.01058382	     58.59245604	     66.53289726
      3.98333330	     -7.79252110	      0.37457125	      1.64409362	      0.34352606	      1.23918554	      0.00069190	     14.35484074	     -5.44337045	     -3.16075369	     50.01308246	      0.87289296	     -3.08907634	    -29.35775834	     -7.49999987	     17.10566878	     -2.76530828	     -3.18225314	     54.14866842	      0.94507255	     -7.25356491	    -24.90318794	     -7.49999987	     -4.46399612	     -3.63309192	     -0.30170167	     46.84434320	     -5.71160582	     38.86491332	     52.99882442	     79.58057471	     48.24160299	     -4.15959394	     43.68084993	     58.48731324	     66.47837921
      4.00000000	     -8.06479962	      0.11972057	      1.48925845	      0.36389554	      1.24168528	      0.00049212	     18.04090975	     -5.85377615	     -3.28478952	     52.15409632	      0.91026070	     -1.78864424	    -28.50893412	     -7.49999987	     20.29247598	     -3.43439921	     -3.08768988	     57.93690649	      1.01118978	     -5.42369243	    -24.53370780	     -7.49999987	     -4.62125418	     -3.49411565	     -0.23176723	     47.86432229	     -5.94664773	     39.93234196	     52.14161484	     79.70561736	     49.53957892	     -4.48612218	     45.53896155	     56.93783507	     67.26281007
      4.01666670	     -7.74828011	      0.12173026	      1.45678202	      0.37946245	      1.24199445	     -0.00010576	     20.34432613	     -6.49627793	     -3.83914217	     52.66273493	      0.91913812	     -0.84219868	    -27.51200020	     -7.49999987	     22.41252381	     -3.80007698	     -2.86789083	     59.38616877	      1.03648418	     -2.69028388	    -22.26913464	     -7.49999987	     -5.94406513	     -3.74085753	     -0.46121227	     49.02427677	     -6.26431557	     40.68411558	     52.06012792	     79.98393355	     51.10426163	     -4.63391464	     46.39539392	     55.53859820	     68.19575120
      4.03333330	     -8.00343083	     -0.02386001	      1.70969983	      0.39601284	      1.23779582	      0.00075701	     22.79050463	     -6.84662679	     -4.20856901	     51.59300188	      0.90046775	     -0.42117060	    -25.01706360	     -7.49999987	     24.82025505	     -4.38586747	     -2.67356899	     59.55533692	      1.03943672	     -0.16908799	    -19.64679258	     -7.49999987	     -6.89347568	     -3.68907396	     -0.75981063	     49.79708641	     -6.50699023	     40.60430090	     52.68158563	     79.67897460	     51.96405260	     -4.88515041	     46.22580003	     55.02571743	     68.43871482
      4.05000000	     -8.34222124	     -0.21557228	      2.00244669	      0.41498802	      1.22795102	      0.00008701	     25.07277819	     -7.26912314	     -4.59791318	     49.81825830	      0.86949263	     -0.72081675	    -22.25277383	     -7.49999987	     27.00775353	     -5.04597789	     -2.50181030	     59.27908624	      1.03461523	      0.90165417	    -16.50268528	     -7.49999987	     -7.23352258	     -3.54381745	     -1.20861755	     50.22885769	     -6.65452028	     40.98565026	     53.29204654	     79.61555655	     52.33235027	     -4.86882498	     46.00248868	     54.00388995	     68.76814361
      4.06666670	     -8.77369339	     -0.25436062	      2.26358596	      0.43263167	      1.21573623	      0.00119680	     27.17706726	     -7.76967184	     -5.04142757	     47.21402015	      0.82404010	     -1.61715239	    -20.22544214	     -7.49999987	     29.44618183	     -5.53438350	     -2.82960083	     58.39266465	      1.01914426	      1.01796487	    -14.48170911	     -7.49999987	     -7.11825916	     -3.66812552	     -1.02736668	     50.44119806	     -6.89067109	     41.40079063	     53.62286186	     81.15415173	     52.70683748	     -4.18639885	     45.21609367	     51.63623712	     71.01277924
      4.08333330	     -9.52164428	     -0.43679937	      2.67757748	      0.44702467	      1.20100671	      0.00243772	     29.87651633	     -8.22459906	     -5.85206023	     44.45699337	      0.77592091	     -3.31908376	    -18.36999732	     -7.49999987	     32.31922595	     -6.11575088	     -2.84779598	     56.66333700	      0.98896180	     -0.30178681	    -13.36415958	     -7.49999987	     -6.84447854	     -3.50962846	     -1.72564625	     50.54162274	     -6.56645615	     40.99068431	     54.69312111	     81.05730123	     52.92114492	     -4.84384661	     44.90304836	     51.20419673	     71.26342589
      4.10000000	    -10.38993837	     -0.30056393	      2.24489983	      0.46346374	      1.18827290	      0.00036308	     32.72240164	     -8.92833536	     -5.82177807	     41.00549065	      0.71568082	     -5.99310294	    -16.46227852	     -7.49999987	     34.65649726	     -6.47684875	     -3.39789899	     53.42687626	      0.93247490	     -2.30732426	    -12.46304473	     -7.49999987	     -6.29587340	     -3.55437322	     -1.71177972	     49.93704086	     -6.45791375	     40.49917231	     56.14414576	     81.21305753	     52.08487302	     -5.44811876	     43.97412809	     51.43060579	     71.68832580
      4.11666670	    -10.72693380	     -0.02563544	      1.94730841	      0.48580524	      1.16982305	     -0.00053479	     33.96899603	     -9.72726733	     -6.15150265	     36.48286309	      0.63674608	     -7.90405671	    -14.10744659	     -7.49999987	     35.90725128	     -6.59725253	     -3.90370437	     49.46459830	      0.86332010	     -3.41812175	    -10.95838471	     -7.49999987	     -6.05885134	     -3.66782759	     -1.84693395	     49.23327678	     -6.09586179	     40.54430421	     56.78403391	     81.05195755	     51.25863910	     -6.25437843	     43.88929379	     51.19345798	     71.66675058
      4.13333330	    -11.58795699	      0.21043842	      1.73312536	      0.50604288	      1.14814388	      0.00076536	     36.23283302	    -10.44813138	     -6.55332457	     32.41465767	      0.56574250	    -11.20039291	    -12.16453443	     -7.49999987	     37.71516449	     -6.75239208	     -4.82402546	     45.52124785	      0.79449565	     -5.97511520	    -10.44075789	     -7.49999987	     -5.66347448	     -3.85821244	     -1.93452768	     47.62826714	     -5.68765302	     38.09484782	     58.85795354	     81.48509889	     49.64567608	     -7.10552986	     41.63353621	     52.38299950	     72.55280486
      4.15000000	    -11.91652833	      0.47681738	      0.89335877	      0.52926521	      1.12878029	     -0.00013190	     37.79014706	    -10.85390013	     -6.77637689	     28.43906452	      0.49635531	    -14.26843735	    -10.32791709	     -7.49999987	     39.01817169	     -6.92318510	     -5.49919767	     41.98434902	      0.73276512	     -7.73841132	     -9.64606866	     -7.49999987	     -5.87831149	     -4.01174993	     -1.65679544	     47.11025185	     -5.48960706	     38.03354795	     59.05976050	     81.53472282	     48.69156637	     -7.96629326	     41.51101623	     52.00141004	     72.63613080
      4.16666670	    -12.54324904	      1.06300544	      0.40779938	      0.54687267	      1.10525518	     -0.00140239	     38.79037273	    -11.58875397	     -6.64193785	     23.90086153	      0.41714873	    -17.28607755	     -9.95249882	     -7.49999987	     39.82656531	     -6.44693443	     -5.80240672	     37.74803255	      0.65882745	    -10.67875354	    -10.20061194	     -7.49999987	     -5.74366160	     -4.18605896	     -2.19554754	     46.22982996	     -4.41385924	     35.96747788	     58.87715497	     84.73023761	     45.85721312	     -9.17072994	     36.90879407	     54.37130554	     76.98505227
      4.18333330	    -12.52979717	      1.15801615	     -0.12903426	      0.57084670	      1.07020396	      0.00010611	     39.12109431	    -11.78479839	     -6.65361841	     20.44741722	      0.35687475	    -19.35327652	     -9.13249734	     -7.49999987	     39.83494362	     -6.68466689	     -5.63381614	     33.32119791	      0.58156461	    -12.94293559	     -8.41195729	     -7.49999987	     -5.53691771	     -4.14824906	     -1.66674758	     45.82854140	     -4.82372746	     35.80159799	     58.44900856	     84.91036710	     44.86382524	     -9.46073666	     36.93096298	     54.17048452	     77.16863179
